<?xml version="1.0" standalone="no"?>
<!DOCTYPE svg PUBLIC "-//W3C//DTD SVG 20010904//EN"
 "http://www.w3.org/TR/2001/REC-SVG-20010904/DTD/svg10.dtd">
<svg version="1.0" xmlns="http://www.w3.org/2000/svg"
 width="1920.000000pt" height="1920.000000pt" viewBox="0 0 1920.000000 1920.000000"
 preserveAspectRatio="xMidYMid meet">

<g transform="translate(0.000000,1920.000000) scale(0.100000,-0.100000)"
fill="#f53d2d" stroke="none">
<path d="M9219 19189 c-647 -26 -1377 -133 -2004 -295 -511 -131 -1057 -320
-1475 -509 -69 -31 -141 -64 -160 -72 -156 -70 -456 -222 -675 -343 -85 -47
-372 -221 -485 -293 -1002 -644 -1880 -1474 -2593 -2452 -529 -726 -964 -1555
-1275 -2430 -445 -1252 -628 -2659 -517 -3970 94 -1099 363 -2153 802 -3135
124 -277 302 -628 431 -850 377 -650 786 -1208 1267 -1730 287 -311 708 -710
971 -920 17 -14 85 -69 152 -122 342 -275 867 -628 1247 -838 219 -121 519
-273 675 -343 19 -8 91 -41 160 -72 193 -87 276 -120 595 -237 436 -161 905
-292 1365 -383 1043 -206 2033 -245 3060 -119 207 25 531 77 715 115 55 11
123 24 150 29 28 5 116 25 196 44 537 127 1183 344 1639 551 69 31 141 64 160
72 156 70 456 222 675 343 378 210 906 564 1247 838 67 53 135 108 152 122
411 328 945 864 1341 1346 689 838 1240 1819 1613 2869 445 1252 628 2663 517
3970 -67 776 -219 1523 -462 2265 -173 531 -489 1235 -771 1720 -377 650 -786
1208 -1267 1730 -287 311 -708 710 -971 920 -17 14 -85 69 -152 122 -342 275
-867 628 -1247 838 -219 121 -519 273 -675 343 -19 8 -91 41 -160 72 -566 257
-1304 490 -1960 620 -775 153 -1532 215 -2281 184z m529 -4970 c348 -37 622
-174 880 -439 180 -184 354 -450 476 -730 63 -142 148 -403 176 -535 4 -22 17
-83 28 -135 27 -124 47 -266 72 -491 11 -101 25 -188 31 -194 7 -7 324 -11
980 -12 1043 -3 1023 -2 1135 -54 102 -49 175 -163 194 -307 9 -66 8 -118 -4
-250 -8 -92 -20 -230 -26 -307 -5 -77 -12 -167 -15 -200 -2 -33 -7 -109 -10
-170 -11 -199 -46 -704 -70 -1015 -20 -246 -99 -1297 -120 -1585 -14 -192 -27
-379 -30 -415 -3 -36 -9 -137 -15 -225 -6 -88 -13 -191 -15 -230 -3 -38 -10
-135 -15 -215 -51 -751 -62 -839 -130 -1036 -62 -175 -148 -313 -274 -439
-160 -158 -321 -230 -576 -255 -160 -16 -5683 -7 -5760 10 -168 36 -314 100
-422 185 -105 82 -212 229 -273 375 -72 170 -106 342 -130 650 -38 494 -44
580 -50 665 -19 312 -53 780 -105 1480 -33 440 -64 863 -70 940 -23 333 -50
704 -55 755 -7 93 -15 201 -20 295 -14 233 -17 278 -50 721 -11 147 -12 223
-5 280 19 152 100 260 237 315 l58 24 991 5 c779 4 994 8 1006 18 11 8 18 41
22 105 27 364 103 770 194 1037 117 341 302 680 487 889 218 246 479 399 785
462 186 38 326 46 488 28z"/>
<path d="M9406 13714 c-104 -19 -256 -81 -348 -140 -101 -66 -260 -228 -336
-344 -34 -52 -61 -98 -60 -101 2 -4 -4 -15 -13 -25 -19 -21 -95 -181 -140
-292 -70 -174 -115 -345 -158 -592 -39 -227 -64 -510 -47 -527 4 -4 585 -8
1291 -8 982 0 1287 3 1296 12 9 9 1 80 -35 315 -26 167 -59 350 -72 408 -161
685 -491 1145 -919 1280 -93 29 -340 37 -459 14z"/>
<path d="M9507 10499 c-223 -20 -453 -97 -615 -207 -77 -52 -203 -174 -259
-250 -225 -304 -267 -637 -118 -937 56 -111 68 -128 180 -240 158 -158 322
-269 551 -374 128 -58 163 -72 344 -135 368 -129 578 -234 796 -397 235 -176
354 -387 354 -627 0 -324 -217 -578 -603 -707 -449 -150 -1034 -37 -1532 296
-189 126 -231 130 -305 27 -65 -89 -31 -151 153 -271 208 -137 343 -206 535
-276 263 -96 445 -126 722 -118 265 7 418 35 610 109 175 68 312 154 428 269
230 228 325 559 257 890 -38 183 -143 355 -317 525 -237 230 -447 345 -1068
584 -104 40 -104 40 -315 136 -93 42 -195 93 -225 112 -139 89 -259 211 -315
322 -40 79 -55 143 -55 242 0 202 109 396 304 540 203 151 440 224 686 213
272 -13 532 -98 799 -263 108 -66 142 -69 200 -14 22 20 43 50 47 66 9 37 -10
97 -43 136 -49 58 -227 161 -393 227 -177 71 -334 107 -525 123 -134 11 -140
11 -278 -1z"/>
</g>
</svg>
